<svg xmlns="http://www.w3.org/2000/svg" width="313" height="43" viewBox="0 0 313 43">
    <g fill="none" fill-rule="evenodd">
        <g fill="#000">
            <path fill-rule="nonzero" d="M21.034 0c7.312 2.168 18.287 10.478 21.964 15.497.106 7.685-4.204 20.843-7.872 25.87-7.253 2.358-21.267 2.04-26.973-.171-4.45-6.24-8.303-19.12-8.149-25.36C4.374 9.539 15.144 1.914 21.034 0zm.125 3.254C13.338 6.782 7.098 11.976 3.249 16.84c.718 8.611 3.709 16.349 6.989 21.62 8.347 1.95 16.89 1.42 22.87-.114 4.3-7.474 6.476-15.594 6.779-21.809-5.81-6.35-12.93-11.155-18.728-13.283z"/>
            <path fill-rule="nonzero" d="M21.5 36.281c-7.421 0-13.438-6.016-13.438-13.437 0-7.422 6.017-13.438 13.438-13.438s13.438 6.016 13.438 13.438c0 7.421-6.017 13.437-13.438 13.437zm0-3.059c5.732 0 10.379-4.646 10.379-10.378S27.232 12.465 21.5 12.465c-5.732 0-10.379 4.647-10.379 10.379 0 5.732 4.647 10.378 10.379 10.378z"/>
            <path d="M21.5 17.469c.954 0 1.85.249 2.628.685-.091-.01-.183-.013-.276-.013-1.67 0-3.024 1.353-3.024 3.023 0 1.67 1.354 3.023 3.024 3.023 1.421 0 2.613-.98 2.937-2.302.057.31.086.631.086.959 0 2.968-2.406 5.375-5.375 5.375s-5.375-2.407-5.375-5.375c0-2.969 2.406-5.375 5.375-5.375z"/>
            <path fill-rule="nonzero" d="M43 32.524h1.574c1.347-2.463 2.476-5.228 3.386-8.295.91-3.067 1.495-6.143 1.755-9.229h10.52v17.524h2.633V41h-3.205v-5.618H46.204V41H43v-8.476zm9.502-14.638c-.204 2.11-.725 4.556-1.56 7.34-.836 2.783-1.788 5.216-2.857 7.298h8.82V17.886h-4.403zm26.438 9.759c0 2.518-.645 4.484-1.936 5.897-1.291 1.412-3.089 2.119-5.392 2.119-1.44 0-2.712-.326-3.818-.976-1.105-.65-1.955-1.585-2.55-2.802-.594-1.218-.891-2.63-.891-4.238 0-2.5.64-4.452 1.923-5.856 1.281-1.403 3.088-2.105 5.42-2.105 2.229 0 3.993.718 5.294 2.154 1.3 1.436 1.95 3.371 1.95 5.807zm-11.215 0c0 3.56 1.314 5.339 3.942 5.339 2.601 0 3.902-1.78 3.902-5.34 0-3.522-1.31-5.283-3.93-5.283-1.374 0-2.37.455-2.988 1.366-.618.91-.926 2.217-.926 3.918zm23.29 4.6l.18-.67c.381-1.384.71-2.448.99-3.192l3.455-8.42H100v15.419h-3.023v-12.45l-.25.837c-.419 1.496-.772 2.598-1.06 3.304l-3.371 8.309h-2.48l-3.372-8.365c-.464-1.208-.891-2.57-1.282-4.085v12.45h-2.995V19.963H86.5l3.344 8.17c.297.752.687 2.123 1.17 4.112zm22.69-12.282h3.594l-6.367 7.43 6.91 7.989h-3.761l-6.66-7.821v7.82h-3.274V19.964h3.274v7.486l6.284-7.486zm19.235 7.682c0 2.518-.646 4.484-1.937 5.897-1.291 1.412-3.088 2.119-5.392 2.119-1.44 0-2.712-.326-3.817-.976-1.106-.65-1.955-1.585-2.55-2.802-.594-1.218-.892-2.63-.892-4.238 0-2.5.641-4.452 1.923-5.856 1.282-1.403 3.088-2.105 5.42-2.105 2.229 0 3.994.718 5.294 2.154 1.3 1.436 1.95 3.371 1.95 5.807zm-11.216 0c0 3.56 1.314 5.339 3.943 5.339 2.6 0 3.901-1.78 3.901-5.34 0-3.522-1.31-5.283-3.929-5.283-1.375 0-2.37.455-2.988 1.366-.618.91-.927 2.217-.927 3.918zm23.29 4.6l.18-.67c.382-1.384.711-2.448.99-3.192l3.455-8.42H154v15.419h-3.023v-12.45l-.251.837c-.418 1.496-.771 2.598-1.059 3.304l-3.372 8.309h-2.48l-3.371-8.365c-.465-1.208-.892-2.57-1.282-4.085v12.45h-2.996V19.963h4.333l3.344 8.17c.297.752.688 2.123 1.17 4.112z"/>
        </g>
        <path fill="#777A82" fill-rule="nonzero" d="M171.2 15.012L163.762 35h-3.035l7.451-19.988h3.022zm6.666 4.867h3.5l3.076 8.572c.465 1.222.775 2.37.93 3.445h.109c.082-.5.232-1.11.451-1.825.219-.715 1.376-4.113 3.473-10.192h3.472l-6.466 17.13c-1.176 3.145-3.136 4.718-5.88 4.718-.71 0-1.403-.078-2.077-.233v-2.543c.483.11 1.034.164 1.654.164 1.55 0 2.639-.898 3.267-2.693l.561-1.422-6.07-15.121zm30.109 0V35h-3.227V22.422h-6.78V35h-3.214V19.879h13.221zm11.844 15.394c-1.914 0-3.4-.688-4.457-2.064h-.192c.128 1.276.192 2.05.192 2.324v6.194h-3.213V19.879h2.597c.073.282.224.957.452 2.023h.164c1.002-1.53 2.506-2.297 4.511-2.297 1.887 0 3.357.684 4.41 2.051 1.052 1.367 1.579 3.286 1.579 5.756s-.536 4.398-1.607 5.783c-1.07 1.386-2.55 2.078-4.436 2.078zm-.78-13.043c-1.276 0-2.208.374-2.796 1.122-.587.747-.881 1.941-.881 3.582v.478c0 1.841.291 3.174.875 4 .583.824 1.535 1.236 2.857 1.236 1.112 0 1.969-.455 2.57-1.367.602-.911.903-2.21.903-3.896 0-1.696-.299-2.978-.896-3.849-.597-.87-1.474-1.306-2.632-1.306zM238.635 35l-.643-2.105h-.109c-.73.92-1.463 1.547-2.201 1.88-.738.332-1.686.498-2.844.498-1.486 0-2.645-.4-3.48-1.203-.833-.802-1.25-1.937-1.25-3.404 0-1.559.578-2.734 1.736-3.527 1.158-.793 2.921-1.226 5.291-1.3l2.611-.081v-.807c0-.966-.225-1.688-.676-2.167-.452-.478-1.151-.718-2.1-.718-.774 0-1.517.114-2.228.342-.71.228-1.394.497-2.05.807l-1.04-2.297c.82-.428 1.719-.754 2.694-.978.975-.223 1.896-.335 2.762-.335 1.923 0 3.374.42 4.354 1.258.98.839 1.47 2.156 1.47 3.951V35h-2.297zm-4.785-2.188c1.167 0 2.103-.325 2.81-.977.706-.652 1.059-1.565 1.059-2.741V27.78l-1.941.082c-1.513.055-2.614.308-3.302.76-.688.45-1.032 1.14-1.032 2.07 0 .675.2 1.197.601 1.566.401.369 1.003.553 1.805.553zm24.271-9.064c0 1.787-1.043 2.867-3.13 3.24v.11c1.166.136 2.06.506 2.68 1.107.619.602.929 1.38.929 2.338 0 1.431-.545 2.532-1.634 3.302-1.09.77-2.673 1.155-4.751 1.155h-7.219V19.879h7.192c3.955 0 5.933 1.29 5.933 3.869zm-2.816 6.604c0-.73-.283-1.247-.848-1.552-.565-.306-1.413-.458-2.543-.458h-3.705v4.28h3.787c2.206 0 3.309-.757 3.309-2.27zm-.397-6.33c0-.602-.234-1.037-.704-1.306-.47-.27-1.169-.404-2.098-.404h-3.897v3.637h3.418c1.076 0 1.891-.139 2.447-.417.556-.278.834-.781.834-1.51zm21.086 16.324H273V35h-10.363v5.346h-2.967v-7.834h1.23c1.076-1.54 1.93-3.402 2.564-5.585.633-2.183 1.01-4.532 1.128-7.048h9.187v12.633h2.215v7.834zm-5.373-7.834V22.34h-3.254c-.173 1.877-.535 3.728-1.087 5.55-.551 1.824-1.223 3.364-2.016 4.622h6.357zm21.168-5.1c0 2.47-.633 4.398-1.9 5.783-1.267 1.386-3.03 2.078-5.291 2.078-1.413 0-2.662-.319-3.746-.957-1.085-.638-1.92-1.554-2.502-2.748-.584-1.194-.875-2.58-.875-4.156 0-2.452.629-4.366 1.886-5.742 1.258-1.376 3.03-2.065 5.319-2.065 2.187 0 3.919.705 5.195 2.113 1.276 1.408 1.914 3.306 1.914 5.694zm-11.006 0c0 3.491 1.29 5.236 3.87 5.236 2.551 0 3.827-1.745 3.827-5.236 0-3.454-1.285-5.182-3.855-5.182-1.349 0-2.326.447-2.933 1.34-.606.894-.909 2.174-.909 3.842zm22.96 4.512l.177-.656c.374-1.359.697-2.402.97-3.131l3.391-8.258h4.28V35h-2.967V22.791l-.246.82c-.41 1.468-.757 2.548-1.04 3.24L305 35h-2.434l-3.308-8.203c-.456-1.185-.875-2.52-1.258-4.006V35h-2.94V19.879h4.252l3.282 8.012c.291.738.674 2.082 1.148 4.033z"/>
    </g>
</svg>
