<svg id="ecotrswmihch1" xmlns="http://www.w3.org/2000/svg" xmlns:xlink="http://www.w3.org/1999/xlink" viewBox="0 0 80 80" shape-rendering="geometricPrecision" text-rendering="geometricPrecision" width="80" height="80"><style><![CDATA[#ecotrswmihch3_tr {animation: ecotrswmihch3_tr__tr 2000ms linear infinite normal forwards}@keyframes ecotrswmihch3_tr__tr { 0% {transform: translate(16px,17px) rotate(0deg)} 100% {transform: translate(16px,17px) rotate(360deg)} }]]></style><g id="ecotrswmihch2" transform="matrix(1.87670955532070 0 0 1.87670955532070 9.97264890000000 9.97264711499997)"><g id="ecotrswmihch3_tr" transform="translate(16,17) rotate(0)"><path id="ecotrswmihch3" d="M15.653416,0C21.094652,1.613749,29.261914,7.797474,31.998576,11.532613C32.077378,17.251817,28.870286,27.043656,26.140482,30.784241C20.742847,32.539748,10.313586,32.303441,6.067129,30.657167C2.756215,26.013376,-0.111573,16.428067,0.003339,11.784914C3.255281,7.098492,11.270385,1.424503,15.653416,0ZM15.746111,2.421563C9.925787,5.046901,5.282246,8.912738,2.418206,12.532385C2.951911,18.940283,5.177812,24.698716,7.618684,28.621118C13.830544,30.072261,20.188513,29.678194,24.638674,28.536863C27.838190,22.974614,29.458107,16.931921,29.683120,12.306632C25.359492,7.580566,20.061219,4.005040,15.746111,2.421563Z" transform="translate(-16,-17)" fill="rgb(0,0,0)" stroke="none" stroke-width="1"/></g><path id="ecotrswmihch4" d="M16,27C10.477153,27,6,22.522848,6,17C6,11.477153,10.477153,7,16,7C21.522848,7,26,11.477153,26,17C26,22.522848,21.522848,27,16,27ZM16,24.723577C20.265614,24.723577,23.723577,21.265614,23.723577,17C23.723577,12.734386,20.265614,9.276423,16,9.276423C11.734386,9.276423,8.276423,12.734386,8.276423,17C8.276423,21.265614,11.734386,24.723577,16,24.723577Z" fill="rgb(0,0,0)" stroke="none" stroke-width="1"/><path id="ecotrswmihch5" d="M16,13C16.709847,13,17.376508,13.184904,17.954445,13.509174C17.886440,13.503068,17.818578,13.500000,17.750000,13.500000C16.507359,13.500000,15.500000,14.507359,15.500000,15.750000C15.500000,16.992641,16.507359,18,17.750000,18C18.808387,18,19.696093,17.269227,19.936074,16.284725C19.978101,16.516532,20,16.755708,20,17C20,19.209139,18.209139,21,16,21C13.790861,21,12,19.209139,12,17C12,14.790861,13.790861,13,16,13Z" fill="rgb(0,0,0)" fill-rule="evenodd" stroke="none" stroke-width="1"/></g></svg>