<svg xmlns="http://www.w3.org/2000/svg" width="114" height="32" viewBox="0 0 114 32" style="background:#fff">
    <g fill="#595959" fill-rule="evenodd">
        <path fill-rule="nonzero" d="M15.653 0C21.095 1.614 29.262 7.797 32 11.533c.078 5.719-3.129 15.51-5.859 19.251-5.397 1.756-15.826 1.52-20.073-.127C2.757 26.013-.112 16.428.003 11.785 3.255 7.098 11.27 1.425 15.653 0zm.093 2.422c-5.82 2.625-10.464 6.49-13.328 10.11.534 6.408 2.76 12.167 5.2 16.09 6.213 1.45 12.57 1.056 17.02-.085 3.2-5.562 4.82-11.605 5.045-16.23-4.324-4.726-9.622-8.302-13.937-9.885z"/>
        <path fill-rule="nonzero" d="M16 27c-5.523 0-10-4.477-10-10S10.477 7 16 7s10 4.477 10 10-4.477 10-10 10zm0-2.276c4.266 0 7.724-3.458 7.724-7.724S20.266 9.276 16 9.276 8.276 12.734 8.276 17s3.458 7.724 7.724 7.724z"/>
        <path d="M16 13c.71 0 1.377.185 1.954.51-.068-.007-.135-.01-.204-.01-1.243 0-2.25 1.007-2.25 2.25S16.507 18 17.75 18c1.058 0 1.946-.73 2.186-1.715.042.232.064.47.064.715 0 2.21-1.79 4-4 4s-4-1.79-4-4 1.79-4 4-4z"/>
        <text font-family="OpenSans-SemiBold, Open Sans" font-size="21" font-weight="500" letter-spacing="-.394">
            <tspan x="32" y="26.5">Домком</tspan>
        </text>
    </g>
</svg>
