<svg xmlns="http://www.w3.org/2000/svg" width="20" height="20" viewBox="0 0 20 20">
  <path fill-rule="evenodd" d="M17,1 L3,1 C1.9,1 1,1.9 1,3 L1,17 C1,18.1 1.9,19 3,19 L17,19 C18.1,19 19,18.1 19,17 L19,3 C19,1.9 18.1,1 17,1 L17,1 Z M3.35958767,10.7241153 C3.16099288,10.5331588 3.14494104,10.199969 3.3118062,9.99459648 L4.3881938,8.66981174 C4.56039961,8.45786613 4.85916586,8.44076393 5.05315781,8.62932953 L7.64684219,11.1504633 C7.84188586,11.3400512 8.16391001,11.331934 8.35704912,11.141271 L14.8429509,4.73852183 C15.0401437,4.54385716 15.341243,4.55445536 15.5218039,4.76973956 L16.6781961,6.14851481 C16.8559235,6.36042056 16.8437881,6.68240781 16.6360425,6.88216327 L8.36395752,14.8360911 C8.16294933,15.0293682 7.83364105,15.0260897 7.64041233,14.8402929 L3.35958767,10.7241153 Z"/>
</svg>
